<?xml version="1.0" encoding="UTF-8" standalone="no"?>
<!DOCTYPE svg PUBLIC "-//W3C//DTD SVG 1.1//EN" "http://www.w3.org/Graphics/SVG/1.1/DTD/svg11.dtd">
<!-- Generated by Microsoft Visio, SVG Export celestialobject_classification.svg Celestial Objects -->
<svg xmlns="http://www.w3.org/2000/svg" xmlns:xlink="http://www.w3.org/1999/xlink" xmlns:ev="http://www.w3.org/2001/xml-events"
		xmlns:v="http://schemas.microsoft.com/visio/2003/SVGExtensions/" width="8.26772in" height="11.6929in"
		viewBox="0 0 595.276 841.89" xml:space="preserve" color-interpolation-filters="sRGB" class="st23">
	<v:documentProperties v:langID="1033" v:metric="true" v:viewMarkup="false">
		<v:userDefs>
			<v:ud v:nameU="msvSubprocessMaster" v:prompt="" v:val="VT4(Rectangle)"/>
			<v:ud v:nameU="msvNoAutoConnect" v:val="VT0(1):26"/>
		</v:userDefs>
	</v:documentProperties>

	<style type="text/css">
	<![CDATA[
		.st1 {fill:none;stroke:none;stroke-linecap:butt;stroke-width:0.75}
		.st2 {fill:#000000;font-family:Waukegan LDO;font-size:1.2979em;font-weight:bold}
		.st3 {fill:#d32533;fill-opacity:0.13;stroke:#d32533;stroke-linecap:butt;stroke-width:2.7485}
		.st4 {fill:#d32533;font-family:Waukegan LDO;font-size:1.06886em;font-weight:bold}
		.st5 {stroke:#7f7f7f;stroke-linecap:round;stroke-linejoin:round;stroke-width:3}
		.st6 {marker-end:url(#mrkr1-21);marker-start:url(#mrkr20-19);stroke:#7f7f7f;stroke-dasharray:10.5,7.5,0,7.5;stroke-linecap:round;stroke-linejoin:round;stroke-width:1.5}
		.st7 {fill:#7f7f7f;fill-opacity:1;stroke:#7f7f7f;stroke-opacity:1;stroke-width:0.37313432835821}
		.st8 {fill:#7f7f7f;font-family:Waukegan LDO;font-size:1.00001em}
		.st9 {fill:#c9c9c9;fill-opacity:0.13;stroke:#7f7f7f;stroke-linecap:butt;stroke-width:2.7485}
		.st10 {fill:#7f7f7f;font-family:Waukegan LDO;font-size:1.06886em;font-weight:bold}
		.st11 {font-size:1em}
		.st12 {fill:none;stroke:#7f7f7f;stroke-dasharray:21.988,10.994;stroke-linecap:butt;stroke-width:2.7485}
		.st13 {fill:#2b6f8f;fill-opacity:0.13;stroke:#2b6f8f;stroke-linecap:butt;stroke-width:2.7485}
		.st14 {fill:#2b6f8f;font-family:Waukegan LDO;font-size:1.06886em;font-weight:bold}
		.st15 {fill:#3aa17e;fill-opacity:0.13;stroke:#3aa17e;stroke-linecap:round;stroke-linejoin:round;stroke-width:2.7485}
		.st16 {fill:#3aa17e;font-family:Waukegan LDO;font-size:1.06886em;font-weight:bold}
		.st17 {fill:none;stroke:#7f7f7f;stroke-dasharray:8,4;stroke-linecap:butt;stroke-width:1}
		.st18 {fill:#4672c4;font-family:Waukegan LDO;font-size:0.833336em}
		.st19 {fill:#c9a227;fill-opacity:0.13;stroke:#c9a227;stroke-linecap:butt;stroke-width:2.7485}
		.st20 {fill:#c9a227;font-family:Waukegan LDO;font-size:1.06886em;font-weight:bold}
		.st21 {marker-end:url(#mrkr20-85);stroke:#4672c4;stroke-linecap:round;stroke-linejoin:round;stroke-width:1}
		.st22 {fill:#4672c4;fill-opacity:1;stroke:#4672c4;stroke-opacity:1;stroke-width:0.28409090909091}
		.st23 {fill:none;fill-rule:evenodd;font-size:12px;overflow:visible;stroke-linecap:square;stroke-miterlimit:3}
	]]>
	</style>

	<defs id="Markers">
		<g id="lend20">
			<path
					d="M 0 0.75 C -0.414214 0.75 -0.75 0.414214 -0.75 0 -0.75 -0.414214 -0.414214 -0.75 0 -0.75 0.414214 -0.75 0.75 -0.414214 0.75 0 0.75 0.414214 0.414214 0.75 0 0.75 Z "
					style="stroke-linecap:round;stroke-linejoin:round;fill:none"/>
		</g>
		<marker id="mrkr20-19" class="st7" v:arrowType="20" v:arrowSize="2" v:setback="1.77" refX="1.77" orient="auto"
				markerUnits="strokeWidth" overflow="visible">
			<use xlink:href="#lend20" transform="scale(2.68) "/>
		</marker>
		<g id="lend1">
			<path d="M 1 -1 L 0 0 L 1 1 " style="stroke-linecap:round;stroke-linejoin:round;fill:none"/>
		</g>
		<marker id="mrkr1-21" class="st7" v:arrowType="1" v:arrowSize="2" orient="auto" markerUnits="strokeWidth"
				overflow="visible">
			<use xlink:href="#lend1" transform="scale(-2.68,-2.68) "/>
		</marker>
		<marker id="mrkr20-85" class="st22" v:arrowType="20" v:arrowSize="2" v:setback="2.64" refX="-2.64" orient="auto"
				markerUnits="strokeWidth" overflow="visible">
			<use xlink:href="#lend20" transform="scale(-3.52,-3.52) "/>
		</marker>
	</defs>
	<g v:mID="4" v:index="1" v:groupContext="foregroundPage">
		<v:userDefs>
			<v:ud v:nameU="msvThemeOrder" v:val="VT0(0):26"/>
		</v:userDefs>
		<title>Celestial Objects</title>
		<v:pageProperties v:drawingScale="0.0393701" v:pageScale="0.0393701" v:drawingUnits="24" v:shadowOffsetX="9"
				v:shadowOffsetY="-9"/>
		<v:layer v:name="Callout" v:index="0"/>
		<v:layer v:name="Connector" v:index="1"/>
		<g id="shape1-1" v:mID="1" v:groupContext="shape" transform="translate(97.912,-805.2)">
			<title>Sheet.1</title>
			<desc>Astrocosmos Celestial Object Classification v3.1.0</desc>
			<v:textBlock v:margins="rect(0,0,0,0)" v:tabSpace="42.5197"/>
			<v:textRect cx="199.726" cy="832.545" width="399.46" height="18.6898"/>
			<rect x="0" y="823.2" width="399.452" height="18.6898" rx="9.34491" ry="9.34491" class="st1"/>
			<text x="45.75" y="837.22" class="st2" v:langID="1033"><v:paragraph v:horizAlign="1"/><v:tabList/>Astrocosmos Celestial Object Classification v3.1.0</text>		</g>
		<g id="shape5-4" v:mID="5" v:groupContext="shape" transform="translate(180.486,-25.4224)">
			<title>Sheet.5</title>
			<desc>Orbits non-stellar host</desc>
			<v:textBlock v:margins="rect(5.66929,5.66929,5.66929,5.66929)" v:verticalAlign="0"/>
			<v:textRect cx="65.6625" cy="633.96" width="131.33" height="415.86"/>
			<path d="M9.71 841.69 A12.5074 7.91056 -180 0 0 12.51 841.89 L118.82 841.89 A12.5074 7.91056 -180 0 0 121.61 841.69 A11.3386
						 11.3386 -180 0 0 131.32 830.47 L131.32 434.06 A5.66929 5.66929 -180 0 0 130.56 431.22 A12.5074 7.91056 -180
						 0 0 118.82 426.03 L12.51 426.03 A12.5074 7.91056 -180 0 0 9.71 426.23 A11.3386 11.3386 -180 0 0 0 437.45
						 L0 830.47 A11.3386 11.3386 -180 0 0 9.71 841.69 Z" class="st3"/>
			<text x="5.67" y="443.24" class="st4" v:langID="1033"><v:paragraph/><v:tabList/>Orbits non-stellar host</text>		</g>
		<g id="shape20-7" v:mID="20" v:groupContext="shape" transform="translate(343.414,-493.118)">
			<title>Sheet.20</title>
			<desc>Stellar Remnant</desc>
			<v:textBlock v:margins="rect(5.66929,5.66929,5.66929,5.66929)" v:verticalAlign="0"/>
			<v:textRect cx="65.6625" cy="806.457" width="131.33" height="70.8661"/>
			<path d="M5.54 841.88 A6.19055 1.34803 -180 0 0 6.19 841.89 L125.13 841.89 A6.19055 1.34803 -180 0 0 125.79 841.88 A5.66929
						 5.66929 -180 0 0 131.32 836.21 L131.32 772.37 A6.19055 1.34803 -180 0 0 125.13 771.02 L6.19 771.02 A6.19055
						 1.34803 -180 0 0 5.54 771.03 A5.66929 5.66929 -180 0 0 -0 776.7 L-0 836.21 A5.66929 5.66929 -180 0 0 5.54
						 841.88 Z" class="st3"/>
			<text x="5.67" y="788.24" class="st4" v:langID="1033"><v:paragraph/><v:tabList/>Stellar Remnant</text>		</g>
		<g id="shape24-10" v:mID="24" v:groupContext="shape" transform="translate(22.6772,-478.944)">
			<title>Sheet.24</title>
			<path d="M0 841.89 L552.76 841.89" class="st5"/>
		</g>
		<g id="shape25-13" v:mID="25" v:groupContext="shape" transform="translate(1011.97,404.504) rotate(90)">
			<title>Sheet.25</title>
			<desc>Size decreases</desc>
			<v:textBlock v:margins="rect(4,4,4,4)" v:tabSpace="42.5197"/>
			<v:textRect cx="299.764" cy="848.976" width="174.34" height="0"/>
			<path d="M2.65 841.89 L3.01 841.89 L411.02 841.89" class="st6"/>
			<text x="263.82" y="852.58" class="st8" v:langID="1033"><v:paragraph v:horizAlign="1"/><v:tabList/>Size decreases</text>		</g>
		<g id="shape33-23" v:mID="33" v:groupContext="shape" transform="translate(192.756,-34.8662)">
			<title>Rectangle.33</title>
			<desc>Ring</desc>
			<v:userDefs>
				<v:ud v:nameU="visVersion" v:val="VT0(15):26"/>
				<v:ud v:nameU="visMasterStencil" v:prompt="" v:val="VT4(Basic_M.vssx)"/>
			</v:userDefs>
			<v:textBlock v:margins="rect(0,0,0,0)" v:tabSpace="42.5197"/>
			<v:textRect cx="25.5118" cy="802.205" width="51.03" height="79.3701"/>
			<rect x="0" y="762.52" width="51.0236" height="79.3701" rx="11.3386" ry="11.3386" class="st9"/>
			<text x="14.79" y="806.05" class="st10" v:langID="1033"><v:paragraph v:horizAlign="1"/><v:tabList/>Ring</text>		</g>
		<g id="shape41-26" v:mID="41" v:groupContext="shape" transform="translate(189.456,-130.374)">
			<title>Rectangle.41</title>
			<desc>Minor Moons / Satellites</desc>
			<v:userDefs>
				<v:ud v:nameU="visVersion" v:val="VT0(15):26"/>
				<v:ud v:nameU="visMasterStencil" v:prompt="" v:val="VT4(Basic_M.vssx)"/>
			</v:userDefs>
			<v:textBlock v:margins="rect(0,0,0,0)" v:tabSpace="42.5197"/>
			<v:textRect cx="56.6929" cy="807.439" width="113.39" height="68.9012"/>
			<rect x="0" y="772.989" width="113.386" height="68.9012" rx="11.3386" ry="11.3386" class="st9"/>
			<text x="17.51" y="803.59" class="st10" v:langID="1033"><v:paragraph v:horizAlign="1"/><v:tabList/>Minor Moons / <tspan
						x="33.5" dy="1.2em" class="st11">Satellites</tspan></text>		</g>
		<g id="shape47-30" v:mID="47" v:groupContext="shape" transform="translate(186.813,-487.975)">
			<title>Rectangle.47</title>
			<desc>Star</desc>
			<v:userDefs>
				<v:ud v:nameU="visVersion" v:val="VT0(15):26"/>
				<v:ud v:nameU="visMasterStencil" v:prompt="" v:val="VT4(Basic_M.vssx)"/>
			</v:userDefs>
			<v:textBlock v:margins="rect(0,0,0,0)" v:tabSpace="42.5197" v:verticalAlign="2"/>
			<v:textRect cx="56.6929" cy="759.745" width="113.39" height="164.29"/>
			<rect x="0" y="677.6" width="113.386" height="164.29" rx="11.3386" ry="11.3386" class="st9"/>
			<text x="45.34" y="838.04" class="st10" v:langID="1033"><v:paragraph v:horizAlign="1"/><v:tabList/>Star</text>		</g>
		<g id="shape49-33" v:mID="49" v:groupContext="shape" transform="translate(355.959,-621.687)">
			<title>Rectangle.49</title>
			<desc>Black Hole</desc>
			<v:userDefs>
				<v:ud v:nameU="visVersion" v:val="VT0(15):26"/>
				<v:ud v:nameU="visMasterStencil" v:prompt="" v:val="VT4(Basic_M.vssx)"/>
			</v:userDefs>
			<v:textBlock v:margins="rect(0,0,0,0)" v:tabSpace="42.5197"/>
			<v:textRect cx="56.6929" cy="823.272" width="113.39" height="37.2358"/>
			<rect x="0" y="804.654" width="113.386" height="37.2358" rx="11.3386" ry="11.3386" class="st9"/>
			<text x="30.35" y="827.12" class="st10" v:langID="1033"><v:paragraph v:horizAlign="1"/><v:tabList/>Black Hole</text>		</g>
		<g id="shape50-36" v:mID="50" v:groupContext="shape" transform="translate(355.959,-502.197)">
			<title>Rectangle.50</title>
			<desc>Neutron Star</desc>
			<v:userDefs>
				<v:ud v:nameU="visVersion" v:val="VT0(15):26"/>
				<v:ud v:nameU="visMasterStencil" v:prompt="" v:val="VT4(Basic_M.vssx)"/>
			</v:userDefs>
			<v:textBlock v:margins="rect(0,0,0,0)" v:tabSpace="42.5197"/>
			<v:textRect cx="56.6929" cy="823.272" width="113.39" height="37.2358"/>
			<rect x="0" y="804.654" width="113.386" height="37.2358" rx="11.3386" ry="11.3386" class="st9"/>
			<text x="22.59" y="827.12" class="st10" v:langID="1033"><v:paragraph v:horizAlign="1"/><v:tabList/>Neutron Star</text>		</g>
		<g id="shape51-39" v:mID="51" v:groupContext="shape" transform="translate(24.1009,-487.975)">
			<title>Rectangle.51</title>
			<desc>Nebula</desc>
			<v:userDefs>
				<v:ud v:nameU="visVersion" v:val="VT0(15):26"/>
				<v:ud v:nameU="visMasterStencil" v:prompt="" v:val="VT4(Basic_M.vssx)"/>
			</v:userDefs>
			<v:textBlock v:margins="rect(5.66929,5.66929,5.66929,5.66929)" v:verticalAlign="0"/>
			<v:textRect cx="44.6425" cy="755.641" width="89.29" height="172.498"/>
			<rect x="0" y="669.392" width="89.2849" height="172.498" rx="11.3386" ry="11.3386" class="st12"/>
			<text x="49.43" y="686.6" class="st10" v:langID="1033"><v:paragraph v:horizAlign="2"/><v:tabList/>Nebula</text>		</g>
		<g id="shape52-42" v:mID="52" v:groupContext="shape" transform="translate(24.1009,-675.912)">
			<title>Rectangle.52</title>
			<desc>Galaxy</desc>
			<v:userDefs>
				<v:ud v:nameU="visVersion" v:val="VT0(15):26"/>
				<v:ud v:nameU="visMasterStencil" v:prompt="" v:val="VT4(Basic_M.vssx)"/>
			</v:userDefs>
			<v:textBlock v:margins="rect(5.66929,5.66929,5.66929,5.66929)" v:verticalAlign="0"/>
			<v:textRect cx="225" cy="823.272" width="450" height="37.2358"/>
			<rect x="0" y="804.654" width="450" height="37.2358" rx="11.3386" ry="11.3386" class="st12"/>
			<text x="410.79" y="821.87" class="st10" v:langID="1033"><v:paragraph v:horizAlign="2"/><v:tabList/>Galaxy</text>		</g>
		<g id="shape53-45" v:mID="53" v:groupContext="shape" transform="translate(-509.102,270.702) rotate(-90)">
			<title>Rectangle.53</title>
			<desc>Star Cluster</desc>
			<v:userDefs>
				<v:ud v:nameU="visVersion" v:val="VT0(15):26"/>
				<v:ud v:nameU="visMasterStencil" v:prompt="" v:val="VT4(Basic_M.vssx)"/>
			</v:userDefs>
			<v:textBlock v:margins="rect(5.66929,5.66929,5.66929,5.66929)" v:verticalAlign="0"/>
			<v:textRect cx="44.6425" cy="739.24" width="89.29" height="205.3"/>
			<rect x="0" y="636.59" width="89.2849" height="205.3" rx="11.3386" ry="11.3386" class="st12"/>
			<text x="20.31" y="653.8" class="st10" v:langID="1033"><v:paragraph v:horizAlign="2"/><v:tabList/>Star Cluster</text>		</g>
		<g id="shape54-48" v:mID="54" v:groupContext="shape" transform="translate(-521.575,315.747) rotate(-90)">
			<title>Rectangle.54</title>
			<desc>Star System</desc>
			<v:userDefs>
				<v:ud v:nameU="visVersion" v:val="VT0(15):26"/>
				<v:ud v:nameU="visMasterStencil" v:prompt="" v:val="VT4(Basic_M.vssx)"/>
			</v:userDefs>
			<v:textBlock v:margins="rect(5.66929,5.66929,5.66929,5.66929)" v:verticalAlign="0"/>
			<v:textRect cx="44.6425" cy="757.966" width="89.29" height="167.847"/>
			<rect x="0" y="674.043" width="89.2849" height="167.847" rx="11.3386" ry="11.3386" class="st12"/>
			<text x="17.97" y="691.26" class="st10" v:langID="1033"><v:paragraph v:horizAlign="2"/><v:tabList/>Star System</text>		</g>
		<g id="shape4-51" v:mID="4" v:groupContext="shape" transform="translate(-386.362,545.011) rotate(-90)">
			<title>Sheet.4</title>
			<desc>Cleared Neighbourhood</desc>
			<v:textBlock v:margins="rect(7.2,7.2,7.2,7.2)" v:verticalAlign="0"/>
			<v:textRect cx="52.5368" cy="677.906" width="105.08" height="327.969"/>
			<path d="M0 824.09 A11.1444 17.7972 -180 0 0 11.14 841.89 L93.93 841.89 A11.1444 17.7972 -180 0 0 105.07 824.09 L105.07
						 531.72 A11.1444 17.7972 -180 0 0 102.01 519.47 A11.3386 11.3386 -180 0 0 92.27 513.92 L11.14 513.92 A11.1444
						 17.7972 -180 0 0 -0 531.72 L0 824.09 Z" class="st13"/>
			<text x="7.2" y="532.66" class="st14" v:langID="1033"><v:paragraph/><v:tabList/>Cleared <tspan x="7.2" dy="1.2em"
						class="st11">Neighbourhood</tspan></text>		</g>
		<g id="shape26-55" v:mID="26" v:groupContext="shape" transform="translate(49.9793,-220.379)">
			<title>Rectangle</title>
			<desc>Rogue Planets</desc>
			<v:userDefs>
				<v:ud v:nameU="visVersion" v:val="VT0(15):26"/>
				<v:ud v:nameU="visMasterStencil" v:prompt="" v:val="VT4(Basic_M.vssx)"/>
			</v:userDefs>
			<v:textBlock v:margins="rect(0,0,0,0)" v:tabSpace="42.5197"/>
			<v:textRect cx="56.6929" cy="807.439" width="113.39" height="68.9012"/>
			<rect x="0" y="772.989" width="113.386" height="68.9012" rx="11.3386" ry="11.3386" class="st9"/>
			<text x="20.19" y="811.29" class="st10" v:langID="1033"><v:paragraph v:horizAlign="1"/><v:tabList/>Rogue Planets</text>		</g>
		<g id="shape36-58" v:mID="36" v:groupContext="shape" transform="translate(189.456,-220.379)">
			<title>Rectangle.36</title>
			<desc>Major Moons (Planetary-mass)</desc>
			<v:userDefs>
				<v:ud v:nameU="visVersion" v:val="VT0(15):26"/>
				<v:ud v:nameU="visMasterStencil" v:prompt="" v:val="VT4(Basic_M.vssx)"/>
			</v:userDefs>
			<v:textBlock v:margins="rect(0,0,0,0)" v:tabSpace="42.5197"/>
			<v:textRect cx="56.6929" cy="807.439" width="113.39" height="68.9012"/>
			<rect x="0" y="772.989" width="113.386" height="68.9012" rx="11.3386" ry="11.3386" class="st9"/>
			<text x="22.8" y="803.59" class="st10" v:langID="1033"><v:paragraph v:horizAlign="1"/><v:tabList/>Major Moons <tspan
						x="13.81" dy="1.2em" class="st11">(Planetary</tspan>-mass)</text>		</g>
		<g id="shape55-62" v:mID="55" v:groupContext="shape" transform="translate(-367.789,628.724) rotate(-90)">
			<title>Rectangle.55</title>
			<desc>Round Enough (Planemos)</desc>
			<v:userDefs>
				<v:ud v:nameU="visVersion" v:val="VT0(15):26"/>
				<v:ud v:nameU="visMasterStencil" v:prompt="" v:val="VT4(Basic_M.vssx)"/>
			</v:userDefs>
			<v:textBlock v:margins="rect(7.2,7.2,7.2,7.2)" v:verticalAlign="0"/>
			<v:textRect cx="86.2489" cy="616.89" width="172.5" height="450"/>
			<rect x="0" y="391.89" width="172.498" height="450" rx="11.3386" ry="11.3386" class="st15"/>
			<text x="7.2" y="410.63" class="st16" v:langID="1057"><v:paragraph/><v:tabList/>Round Enough (<tspan class="st11"
						v:langID="1033">Planemos</tspan>)</text>		</g>
		<g id="shape110-66" v:mID="110" v:groupContext="shape" transform="translate(481.89,-354.784)">
			<title>Rectangle.110</title>
			<desc>Also orbits shared barycenter or via shared barycenter</desc>
			<v:userDefs>
				<v:ud v:nameU="visVersion" v:val="VT0(15):26"/>
				<v:ud v:nameU="visMasterStencil" v:prompt="" v:val="VT4(Basic_M.vssx)"/>
			</v:userDefs>
			<v:textBlock v:margins="rect(0,0,0,0)" v:tabSpace="42.5197"/>
			<v:textRect cx="44.6425" cy="814.762" width="89.29" height="54.2558"/>
			<rect x="0" y="787.634" width="89.2849" height="54.2558" rx="11.3386" ry="11.3386" class="st17"/>
			<text x="8.44" y="804.07" class="st18" v:langID="1033"><v:paragraph v:horizAlign="1"/><v:tabList/>Also orbits shared <tspan
						x="10.62" dy="1.2em" class="st11">barycenter or via </tspan><tspan x="8.13" dy="1.454em" class="st11">shared barycenter</tspan></text>		</g>
		<g id="shape34-71" v:mID="34" v:groupContext="shape" transform="translate(290.551,-82.7362)">
			<title>Rectangle.34</title>
			<desc>Comets</desc>
			<v:userDefs>
				<v:ud v:nameU="visVersion" v:val="VT0(15):26"/>
				<v:ud v:nameU="visMasterStencil" v:prompt="" v:val="VT4(Basic_M.vssx)"/>
			</v:userDefs>
			<v:textBlock v:margins="rect(0,0,0,0)" v:tabSpace="42.5197"/>
			<v:textRect cx="80.0787" cy="826.14" width="160.16" height="31.5"/>
			<rect x="0" y="810.39" width="160.157" height="31.5" rx="11.3386" ry="11.3386" class="st9"/>
			<text x="59.86" y="829.99" class="st10" v:langID="1033"><v:paragraph v:horizAlign="1"/><v:tabList/>Comets</text>		</g>
		<g id="shape113-74" v:mID="113" v:groupContext="shape" transform="translate(321.732,-18)">
			<title>Sheet.113</title>
			<desc>Planetary System</desc>
			<v:textBlock v:margins="rect(5.66929,5.66929,5.66929,5.66929)" v:verticalAlign="0"/>
			<v:textRect cx="72.9921" cy="618.024" width="145.99" height="447.732"/>
			<path d="M0 833.37 A6.88157 8.51684 -180 0 0 5.36 841.68 A5.66929 5.66929 -180 0 0 6.89 841.89 L139.09 841.89 A5.66929
						 5.66929 -180 0 0 140.63 841.68 A6.88157 8.51684 -180 0 0 145.98 833.37 L145.98 402.67 A6.88157 8.51684 -180
						 0 0 140.63 394.37 A5.66929 5.66929 -180 0 0 139.09 394.16 L6.89 394.16 A5.66929 5.66929 -180 0 0 5.36 394.37
						 A6.88157 8.51684 -180 0 0 0 402.67 L0 833.37 Z" class="st12"/>
			<text x="49.35" y="411.37" class="st10" v:langID="1033"><v:paragraph v:horizAlign="2"/><v:tabList/>Planetary System</text>		</g>
		<g id="shape114-77" v:mID="114" v:groupContext="shape" transform="translate(329.062,-25.3614)">
			<title>Rectangle.97</title>
			<desc>Orbits Star</desc>
			<v:userDefs>
				<v:ud v:nameU="visVersion" v:val="VT0(15):26"/>
				<v:ud v:nameU="visMasterStencil" v:prompt="" v:val="VT4(Basic_M.vssx)"/>
			</v:userDefs>
			<v:textBlock v:margins="rect(5.66929,5.66929,5.66929,5.66929)" v:verticalAlign="0"/>
			<v:textRect cx="65.6625" cy="633.96" width="131.33" height="415.86"/>
			<rect x="0" y="426.03" width="131.325" height="415.86" rx="11.3386" ry="11.3386" class="st19"/>
			<text x="5.67" y="443.24" class="st20" v:langID="1033"><v:paragraph/><v:tabList/>Orbits Star</text>		</g>
		<g id="shape115-80" v:mID="115" v:groupContext="shape" v:layerMember="1" transform="translate(460.387,-409.039)">
			<title>Dynamic connector</title>
			<path d="M0 841.89 L19.86 866.95" class="st21"/>
		</g>
		<g id="shape116-86" v:mID="116" v:groupContext="shape" transform="translate(337.323,-303.723)">
			<title>Rectangle.31</title>
			<desc>Planets</desc>
			<v:userDefs>
				<v:ud v:nameU="visVersion" v:val="VT0(15):26"/>
				<v:ud v:nameU="visMasterStencil" v:prompt="" v:val="VT4(Basic_M.vssx)"/>
			</v:userDefs>
			<v:textBlock v:margins="rect(0,0,0,0)" v:tabSpace="42.5197"/>
			<v:textRect cx="56.6929" cy="807.439" width="113.39" height="68.9012"/>
			<rect x="0" y="772.989" width="113.386" height="68.9012" rx="11.3386" ry="11.3386" class="st9"/>
			<text x="37.85" y="811.29" class="st10" v:langID="1033"><v:paragraph v:horizAlign="1"/><v:tabList/>Planets</text>		</g>
		<g id="shape117-89" v:mID="117" v:groupContext="shape" transform="translate(337.323,-128.409)">
			<title>Rectangle.32</title>
			<desc>Asteroids</desc>
			<v:userDefs>
				<v:ud v:nameU="visVersion" v:val="VT0(15):26"/>
				<v:ud v:nameU="visMasterStencil" v:prompt="" v:val="VT4(Basic_M.vssx)"/>
			</v:userDefs>
			<v:textBlock v:margins="rect(0,0,0,0)" v:tabSpace="42.5197"/>
			<v:textRect cx="56.6929" cy="826.14" width="113.39" height="31.5"/>
			<rect x="0" y="810.39" width="113.386" height="31.5" rx="11.3386" ry="11.3386" class="st9"/>
			<text x="32.05" y="829.99" class="st10" v:langID="1033"><v:paragraph v:horizAlign="1"/><v:tabList/>Asteroids</text>		</g>
		<g id="shape118-92" v:mID="118" v:groupContext="shape" transform="translate(338.031,-220.379)">
			<title>Rectangle.29</title>
			<desc>Dwarf Planets</desc>
			<v:userDefs>
				<v:ud v:nameU="visVersion" v:val="VT0(15):26"/>
				<v:ud v:nameU="visMasterStencil" v:prompt="" v:val="VT4(Basic_M.vssx)"/>
			</v:userDefs>
			<v:textBlock v:margins="rect(0,0,0,0)" v:tabSpace="42.5197"/>
			<v:textRect cx="56.6929" cy="807.439" width="113.39" height="68.9012"/>
			<rect x="0" y="772.989" width="113.386" height="68.9012" rx="11.3386" ry="11.3386" class="st9"/>
			<text x="20.21" y="811.29" class="st10" v:langID="1033"><v:paragraph v:horizAlign="1"/><v:tabList/>Dwarf Planets</text>		</g>
		<g id="shape120-95" v:mID="120" v:groupContext="shape" transform="translate(42.5197,-419.483)">
			<title>Sheet.120</title>
			<desc>Lorem</desc>
			<v:textBlock v:margins="rect(4,4,4,4)" v:tabSpace="42.5197"/>
			<v:textRect cx="70.8661" cy="850.841" width="141.74" height="0"/>
			<path d="M2.65 841.89 L3.01 841.89 L439.37 841.89" class="st6"/>
			<text x="55.53" y="854.44" class="st8" v:langID="1033"><v:paragraph v:horizAlign="1"/><v:tabList/>Lorem</text>		</g>
	</g>
</svg>
